<mxfile host="Electron" modified="2024-06-18T08:34:27.348Z" agent="Mozilla/5.0 (Windows NT 10.0; Win64; x64) AppleWebKit/537.36 (KHTML, like Gecko) draw.io/23.0.2 Chrome/120.0.6099.109 Electron/28.1.0 Safari/537.36" etag="zmXOlzJ5GQJYuxf9ceHp" version="23.0.2" type="device">
  <diagram name="Страница — 1" id="0QtbUx7CQYb-3_14Yij-">
    <mxGraphModel dx="3908" dy="3676" grid="0" gridSize="10" guides="1" tooltips="1" connect="1" arrows="1" fold="1" page="0" pageScale="1" pageWidth="827" pageHeight="1169" math="0" shadow="0">
      <root>
        <mxCell id="0" />
        <mxCell id="1" parent="0" />
        <mxCell id="VWwHg93irCtANxQov8Of-36" style="edgeStyle=orthogonalEdgeStyle;rounded=0;orthogonalLoop=1;jettySize=auto;html=1;exitX=0.5;exitY=0;exitDx=0;exitDy=0;entryX=0.5;entryY=1;entryDx=0;entryDy=0;" parent="1" source="VWwHg93irCtANxQov8Of-8" target="VWwHg93irCtANxQov8Of-10" edge="1">
          <mxGeometry relative="1" as="geometry" />
        </mxCell>
        <mxCell id="VWwHg93irCtANxQov8Of-8" value="Клиент C#" style="swimlane;whiteSpace=wrap;html=1;" parent="1" vertex="1">
          <mxGeometry x="211" y="517" width="200" height="200" as="geometry" />
        </mxCell>
        <mxCell id="VWwHg93irCtANxQov8Of-10" value="Сервер C++" style="swimlane;whiteSpace=wrap;html=1;" parent="1" vertex="1">
          <mxGeometry x="211" y="159" width="200" height="200" as="geometry" />
        </mxCell>
        <mxCell id="VWwHg93irCtANxQov8Of-11" value="Apache Kafka" style="rounded=0;whiteSpace=wrap;html=1;" parent="1" vertex="1">
          <mxGeometry x="535" y="229" width="200" height="60" as="geometry" />
        </mxCell>
        <mxCell id="VWwHg93irCtANxQov8Of-12" value="" style="endArrow=classic;startArrow=classic;html=1;rounded=0;exitX=1;exitY=0.5;exitDx=0;exitDy=0;entryX=0;entryY=0.5;entryDx=0;entryDy=0;" parent="1" source="VWwHg93irCtANxQov8Of-10" target="VWwHg93irCtANxQov8Of-11" edge="1">
          <mxGeometry width="50" height="50" relative="1" as="geometry">
            <mxPoint x="554" y="338" as="sourcePoint" />
            <mxPoint x="604" y="288" as="targetPoint" />
          </mxGeometry>
        </mxCell>
        <mxCell id="VWwHg93irCtANxQov8Of-14" value="CDC Connector C++" style="swimlane;whiteSpace=wrap;html=1;startSize=23;" parent="1" vertex="1">
          <mxGeometry x="859" y="159" width="200" height="200" as="geometry" />
        </mxCell>
        <mxCell id="VWwHg93irCtANxQov8Of-15" value="" style="endArrow=classic;startArrow=classic;html=1;rounded=0;entryX=0;entryY=0.5;entryDx=0;entryDy=0;exitX=1;exitY=0.5;exitDx=0;exitDy=0;" parent="1" source="VWwHg93irCtANxQov8Of-11" target="VWwHg93irCtANxQov8Of-14" edge="1">
          <mxGeometry width="50" height="50" relative="1" as="geometry">
            <mxPoint x="646" y="338" as="sourcePoint" />
            <mxPoint x="696" y="288" as="targetPoint" />
          </mxGeometry>
        </mxCell>
        <mxCell id="VWwHg93irCtANxQov8Of-23" value="Мониторинг Rust" style="swimlane;whiteSpace=wrap;html=1;fillColor=#f8cecc;strokeColor=#b85450;" parent="1" vertex="1">
          <mxGeometry x="535" y="-41" width="200" height="200" as="geometry" />
        </mxCell>
        <mxCell id="VWwHg93irCtANxQov8Of-25" value="" style="endArrow=classic;startArrow=classic;html=1;rounded=0;exitX=0.5;exitY=0;exitDx=0;exitDy=0;entryX=0.5;entryY=1;entryDx=0;entryDy=0;" parent="1" source="VWwHg93irCtANxQov8Of-11" target="VWwHg93irCtANxQov8Of-23" edge="1">
          <mxGeometry width="50" height="50" relative="1" as="geometry">
            <mxPoint x="676" y="99" as="sourcePoint" />
            <mxPoint x="726" y="49" as="targetPoint" />
          </mxGeometry>
        </mxCell>
        <mxCell id="VWwHg93irCtANxQov8Of-26" value="Сайт React" style="swimlane;whiteSpace=wrap;html=1;" parent="1" vertex="1">
          <mxGeometry x="535" y="817" width="200" height="200" as="geometry" />
        </mxCell>
        <mxCell id="VWwHg93irCtANxQov8Of-27" value="API NodeJS" style="swimlane;whiteSpace=wrap;html=1;" parent="1" vertex="1">
          <mxGeometry x="535" y="517" width="200" height="200" as="geometry" />
        </mxCell>
        <mxCell id="VWwHg93irCtANxQov8Of-30" value="Redis" style="rounded=0;whiteSpace=wrap;html=1;" parent="1" vertex="1">
          <mxGeometry x="11" y="408" width="200" height="60" as="geometry" />
        </mxCell>
        <mxCell id="VWwHg93irCtANxQov8Of-33" value="" style="endArrow=classic;startArrow=classic;html=1;rounded=0;exitX=0.5;exitY=0;exitDx=0;exitDy=0;entryX=0.5;entryY=1;entryDx=0;entryDy=0;" parent="1" source="VWwHg93irCtANxQov8Of-26" target="VWwHg93irCtANxQov8Of-27" edge="1">
          <mxGeometry width="50" height="50" relative="1" as="geometry">
            <mxPoint x="409" y="340" as="sourcePoint" />
            <mxPoint x="459" y="290" as="targetPoint" />
          </mxGeometry>
        </mxCell>
        <mxCell id="VWwHg93irCtANxQov8Of-34" value="" style="endArrow=classic;startArrow=classic;html=1;rounded=0;entryX=0.5;entryY=1;entryDx=0;entryDy=0;exitX=0.5;exitY=0;exitDx=0;exitDy=0;" parent="1" source="VWwHg93irCtANxQov8Of-27" target="VWwHg93irCtANxQov8Of-11" edge="1">
          <mxGeometry width="50" height="50" relative="1" as="geometry">
            <mxPoint x="409" y="430" as="sourcePoint" />
            <mxPoint x="459" y="380" as="targetPoint" />
          </mxGeometry>
        </mxCell>
        <mxCell id="VWwHg93irCtANxQov8Of-37" value="" style="endArrow=classic;html=1;rounded=0;exitX=0.5;exitY=0;exitDx=0;exitDy=0;entryX=1;entryY=0.5;entryDx=0;entryDy=0;edgeStyle=orthogonalEdgeStyle;" parent="1" source="VWwHg93irCtANxQov8Of-8" target="VWwHg93irCtANxQov8Of-30" edge="1">
          <mxGeometry width="50" height="50" relative="1" as="geometry">
            <mxPoint x="197" y="496" as="sourcePoint" />
            <mxPoint x="247" y="446" as="targetPoint" />
          </mxGeometry>
        </mxCell>
        <mxCell id="VWwHg93irCtANxQov8Of-42" value="" style="swimlane;startSize=0;" parent="1" vertex="1">
          <mxGeometry x="1245" y="-397.75" width="861" height="908.75" as="geometry" />
        </mxCell>
        <mxCell id="VWwHg93irCtANxQov8Of-16" value="PostgreSQL&lt;br&gt;главная" style="shape=cylinder3;whiteSpace=wrap;html=1;boundedLbl=1;backgroundOutline=1;size=15;" parent="VWwHg93irCtANxQov8Of-42" vertex="1">
          <mxGeometry x="89" y="333.5" width="219" height="230" as="geometry" />
        </mxCell>
        <mxCell id="VWwHg93irCtANxQov8Of-18" value="PostgreSQL&lt;br&gt;логгирование" style="shape=cylinder3;whiteSpace=wrap;html=1;boundedLbl=1;backgroundOutline=1;size=15;" parent="VWwHg93irCtANxQov8Of-42" vertex="1">
          <mxGeometry x="89" y="618.5" width="219" height="230" as="geometry" />
        </mxCell>
        <mxCell id="VWwHg93irCtANxQov8Of-47" value="PostgreSQL&lt;br&gt;парсинг ИНН" style="shape=cylinder3;whiteSpace=wrap;html=1;boundedLbl=1;backgroundOutline=1;size=15;" parent="VWwHg93irCtANxQov8Of-42" vertex="1">
          <mxGeometry x="89" y="48.5" width="219" height="230" as="geometry" />
        </mxCell>
        <mxCell id="VWwHg93irCtANxQov8Of-39" value="PostgreSQL&lt;br&gt;запасная" style="shape=cylinder3;whiteSpace=wrap;html=1;boundedLbl=1;backgroundOutline=1;size=15;" parent="VWwHg93irCtANxQov8Of-42" vertex="1">
          <mxGeometry x="561" y="333.5" width="219" height="230" as="geometry" />
        </mxCell>
        <mxCell id="VWwHg93irCtANxQov8Of-40" style="edgeStyle=orthogonalEdgeStyle;rounded=0;orthogonalLoop=1;jettySize=auto;html=1;exitX=0;exitY=0.5;exitDx=0;exitDy=0;exitPerimeter=0;entryX=1;entryY=0.5;entryDx=0;entryDy=0;entryPerimeter=0;startArrow=classic;startFill=1;dashed=1;" parent="VWwHg93irCtANxQov8Of-42" source="VWwHg93irCtANxQov8Of-39" target="VWwHg93irCtANxQov8Of-16" edge="1">
          <mxGeometry relative="1" as="geometry" />
        </mxCell>
        <mxCell id="VWwHg93irCtANxQov8Of-43" value="" style="endArrow=classic;startArrow=classic;html=1;rounded=0;exitX=1;exitY=0.5;exitDx=0;exitDy=0;entryX=0;entryY=0.723;entryDx=0;entryDy=0;entryPerimeter=0;" parent="1" source="VWwHg93irCtANxQov8Of-14" target="VWwHg93irCtANxQov8Of-42" edge="1">
          <mxGeometry width="50" height="50" relative="1" as="geometry">
            <mxPoint x="1436" y="281" as="sourcePoint" />
            <mxPoint x="1486" y="231" as="targetPoint" />
          </mxGeometry>
        </mxCell>
        <mxCell id="VWwHg93irCtANxQov8Of-45" value="БД кластер" style="text;html=1;align=center;verticalAlign=middle;whiteSpace=wrap;rounded=0;" parent="1" vertex="1">
          <mxGeometry x="1698.5" y="-427.75" width="178" height="30" as="geometry" />
        </mxCell>
        <mxCell id="VWwHg93irCtANxQov8Of-48" value="парсер python" style="swimlane;whiteSpace=wrap;html=1;startSize=23;" parent="1" vertex="1">
          <mxGeometry x="211" y="-359" width="200" height="200" as="geometry" />
        </mxCell>
        <mxCell id="VWwHg93irCtANxQov8Of-50" value="CDC Connector C++" style="swimlane;whiteSpace=wrap;html=1;startSize=23;" parent="1" vertex="1">
          <mxGeometry x="859" y="-359" width="200" height="200" as="geometry" />
        </mxCell>
        <mxCell id="VWwHg93irCtANxQov8Of-51" value="" style="endArrow=classic;startArrow=none;html=1;rounded=0;exitX=1;exitY=0.5;exitDx=0;exitDy=0;startFill=0;" parent="1" source="VWwHg93irCtANxQov8Of-50" edge="1">
          <mxGeometry width="50" height="50" relative="1" as="geometry">
            <mxPoint x="1059" y="-215" as="sourcePoint" />
            <mxPoint x="1245" y="-259" as="targetPoint" />
          </mxGeometry>
        </mxCell>
        <mxCell id="VWwHg93irCtANxQov8Of-54" value="Transform C++" style="swimlane;whiteSpace=wrap;html=1;startSize=23;" parent="1" vertex="1">
          <mxGeometry x="535" y="-359" width="200" height="200" as="geometry" />
        </mxCell>
        <mxCell id="VWwHg93irCtANxQov8Of-56" value="" style="endArrow=classic;html=1;rounded=0;entryX=0;entryY=0.5;entryDx=0;entryDy=0;exitX=1;exitY=0.5;exitDx=0;exitDy=0;" parent="1" source="VWwHg93irCtANxQov8Of-54" target="VWwHg93irCtANxQov8Of-50" edge="1">
          <mxGeometry width="50" height="50" relative="1" as="geometry">
            <mxPoint x="682" y="-186" as="sourcePoint" />
            <mxPoint x="732" y="-236" as="targetPoint" />
          </mxGeometry>
        </mxCell>
        <mxCell id="VWwHg93irCtANxQov8Of-57" value="" style="endArrow=classic;html=1;rounded=0;exitX=1;exitY=0.5;exitDx=0;exitDy=0;entryX=0;entryY=0.5;entryDx=0;entryDy=0;" parent="1" source="VWwHg93irCtANxQov8Of-48" target="VWwHg93irCtANxQov8Of-54" edge="1">
          <mxGeometry width="50" height="50" relative="1" as="geometry">
            <mxPoint x="512" y="-186" as="sourcePoint" />
            <mxPoint x="562" y="-236" as="targetPoint" />
          </mxGeometry>
        </mxCell>
        <mxCell id="VWwHg93irCtANxQov8Of-59" value="" style="swimlane;startSize=0;" parent="1" vertex="1">
          <mxGeometry x="146" y="-397.75" width="967" height="273.75" as="geometry" />
        </mxCell>
        <mxCell id="VWwHg93irCtANxQov8Of-60" value="&lt;font style=&quot;font-size: 24px;&quot;&gt;ETL&lt;/font&gt;" style="text;html=1;align=center;verticalAlign=middle;whiteSpace=wrap;rounded=0;" parent="1" vertex="1">
          <mxGeometry x="513" y="-427.75" width="244" height="30" as="geometry" />
        </mxCell>
      </root>
    </mxGraphModel>
  </diagram>
</mxfile>
